<?xml version="1.0" encoding="UTF-8" standalone="no"?>
<svg
   xmlns:dc="http://purl.org/dc/elements/1.1/"
   xmlns:cc="http://creativecommons.org/ns#"
   xmlns:rdf="http://www.w3.org/1999/02/22-rdf-syntax-ns#"
   xmlns:svg="http://www.w3.org/2000/svg"
   xmlns="http://www.w3.org/2000/svg"
   xmlns:sodipodi="http://sodipodi.sourceforge.net/DTD/sodipodi-0.dtd"
   xmlns:inkscape="http://www.inkscape.org/namespaces/inkscape"
   width="512"
   height="512"
   viewBox="0 0 512 512"
   version="1.1"
   id="svg10"
   sodipodi:docname="logo-red-ruby.svg"
   inkscape:version="1.0 (1.0+r73+1)">
  <metadata
     id="metadata16">
    <rdf:RDF>
      <cc:Work
         rdf:about="">
        <dc:format>image/svg+xml</dc:format>
        <dc:type
           rdf:resource="http://purl.org/dc/dcmitype/StillImage" />
        <dc:title>ionicons-v5_logos</dc:title>
      </cc:Work>
    </rdf:RDF>
  </metadata>
  <defs
     id="defs14" />
  <sodipodi:namedview
     inkscape:document-rotation="0"
     pagecolor="#ffffff"
     bordercolor="#666666"
     borderopacity="1"
     objecttolerance="10"
     gridtolerance="10"
     guidetolerance="10"
     inkscape:pageopacity="0"
     inkscape:pageshadow="2"
     inkscape:window-width="1920"
     inkscape:window-height="1018"
     id="namedview12"
     showgrid="false"
     inkscape:zoom="1.3964844"
     inkscape:cx="256"
     inkscape:cy="256"
     inkscape:window-x="0"
     inkscape:window-y="36"
     inkscape:window-maximized="1"
     inkscape:current-layer="svg10" />
  <title
     id="title2">ionicons-v5_logos</title>
  <g
     transform="matrix(7.2254941,0,0,7.2254941,1.4168662,49.673087)"
     id="g861">
    <g
       transform="translate(-210,-47.9)"
       id="g154">
      <path
         style="fill:#be1e2d"
         d="m 213.6,105.7 c 0.5,-0.1 0.9,-0.3 1.2,-0.6 0.3,-0.4 0.4,-0.8 0.4,-1.3 0,-0.4 -0.1,-0.7 -0.2,-1 -0.1,-0.3 -0.3,-0.5 -0.6,-0.6 -0.3,-0.2 -0.5,-0.3 -0.9,-0.3 -0.3,-0.1 -0.7,-0.1 -1,-0.1 H 210 v 7.2 h 1.3 v -3 h 0.9 l 1.7,3 h 1.5 z m -0.7,-0.9 c -0.2,0 -0.4,0 -0.5,0 h -1 v -2 h 1.1 c 0.2,0 0.3,0 0.5,0 0.2,0 0.3,0.1 0.5,0.1 0.1,0.1 0.3,0.2 0.3,0.3 0.1,0.1 0.1,0.3 0.1,0.5 0,0.2 0,0.4 -0.1,0.6 -0.1,0.1 -0.2,0.2 -0.4,0.3 -0.1,0.1 -0.3,0.1 -0.5,0.2 z"
         id="path136" />
      <polygon
         style="fill:#be1e2d"
         points="219.5,107.8 220.8,107.8 224.5,107.8 224.5,108.9 219.5,108.9 "
         id="polygon138" />
      <polygon
         style="fill:#be1e2d"
         points="224.3,102.9 220.8,102.9 219.5,102.9 219.5,101.7 224.3,101.7 "
         id="polygon140" />
      <polygon
         style="fill:#be1e2d"
         points="224.3,105.9 220.8,105.9 219.5,105.9 219.5,104.7 224.3,104.7 "
         id="polygon142" />
      <path
         style="fill:#be1e2d"
         d="m 235,103.7 c -0.2,-0.4 -0.5,-0.8 -0.8,-1.1 -0.3,-0.3 -0.7,-0.5 -1.2,-0.7 -0.4,-0.1 -0.9,-0.2 -1.4,-0.2 h -2.8 v 7.2 h 2.7 c 0.4,0 0.9,-0.1 1.3,-0.2 0.4,-0.1 0.9,-0.4 1.2,-0.7 0.4,-0.3 0.7,-0.7 0.9,-1.1 0.2,-0.5 0.3,-1 0.3,-1.6 0.1,-0.6 0,-1.1 -0.2,-1.6 z m -1.3,2.8 c -0.2,0.3 -0.4,0.6 -0.6,0.8 -0.3,0.2 -0.6,0.3 -0.9,0.4 -0.4,0.1 -0.7,0.1 -1.1,0.1 h -1 v -4.9 h 1.2 c 0.4,0 0.8,0 1.1,0.1 0.3,0.1 0.6,0.2 0.9,0.4 0.2,0.2 0.4,0.4 0.6,0.8 0.1,0.3 0.2,0.7 0.2,1.1 -0.2,0.5 -0.2,0.8 -0.4,1.2 z"
         id="path144" />
      <path
         style="fill:#be1e2d"
         d="m 249.1,105.7 c 0.5,-0.1 0.9,-0.3 1.2,-0.6 0.3,-0.4 0.4,-0.8 0.4,-1.3 0,-0.4 -0.1,-0.7 -0.2,-1 -0.1,-0.3 -0.3,-0.5 -0.6,-0.6 -0.3,-0.2 -0.5,-0.3 -0.9,-0.3 -0.3,-0.1 -0.7,-0.1 -1,-0.1 h -2.5 v 7.2 h 1.3 v -1.7 0 -1.3 h 1 l 1.7,3 h 1.5 z m -0.7,-0.9 c -0.2,0 -0.4,0 -0.5,0 h -1 v -0.5 0 -1.5 h 1.1 c 0.2,0 0.3,0 0.5,0 0.2,0 0.3,0.1 0.5,0.1 0.1,0.1 0.3,0.2 0.3,0.3 0.1,0.1 0.1,0.3 0.1,0.5 0,0.2 0,0.4 -0.1,0.6 -0.1,0.1 -0.2,0.2 -0.4,0.3 -0.1,0.1 -0.3,0.1 -0.5,0.2 z"
         id="path146" />
      <path
         style="fill:#be1e2d"
         d="m 259.5,101.7 h 1.3 v 4.6 c 0,0.4 -0.1,0.8 -0.2,1.2 -0.1,0.3 -0.4,0.6 -0.6,0.9 -0.3,0.2 -0.6,0.4 -0.9,0.6 -0.4,0.1 -0.7,0.2 -1.1,0.2 -0.4,0 -0.8,-0.1 -1.1,-0.2 -0.4,-0.1 -0.7,-0.3 -0.9,-0.6 -0.3,-0.2 -0.5,-0.5 -0.6,-0.9 -0.1,-0.3 -0.2,-0.7 -0.2,-1.2 v -4.6 h 1.3 v 4.5 c 0,0.2 0,0.4 0.1,0.6 0.1,0.2 0.1,0.4 0.3,0.5 0.1,0.2 0.3,0.3 0.5,0.4 0.2,0.1 0.5,0.2 0.8,0.2 0.3,0 0.6,-0.1 0.8,-0.2 0.2,-0.1 0.4,-0.2 0.5,-0.4 0.1,-0.2 0.2,-0.3 0.3,-0.5 0.1,-0.2 0.1,-0.4 0.1,-0.6 v -4.5 z"
         id="path148" />
      <path
         style="fill:#be1e2d"
         d="m 270.6,106.2 c -0.1,-0.2 -0.2,-0.4 -0.3,-0.5 -0.1,-0.2 -0.3,-0.3 -0.5,-0.4 -0.2,-0.1 -0.4,-0.2 -0.6,-0.2 v 0 c 0.4,-0.1 0.7,-0.3 0.9,-0.6 0.2,-0.3 0.3,-0.6 0.3,-1 0,-0.3 -0.1,-0.6 -0.2,-0.8 -0.1,-0.2 -0.3,-0.4 -0.5,-0.6 -0.2,-0.1 -0.4,-0.3 -0.7,-0.3 -0.3,-0.1 -0.5,-0.1 -0.8,-0.1 h -2.8 v 7.2 h 2.6 c 0.3,0 0.7,0 1,-0.1 0.3,-0.1 0.6,-0.2 0.9,-0.3 0.3,-0.2 0.5,-0.4 0.6,-0.6 0.2,-0.3 0.2,-0.6 0.2,-1 0.1,-0.3 0,-0.5 -0.1,-0.7 z m -3.9,-3.4 h 1.1 c 0.5,0 0.8,0.1 1.1,0.2 0.2,0.2 0.3,0.4 0.3,0.7 0,0.3 -0.1,0.5 -0.3,0.7 -0.2,0.2 -0.5,0.2 -1,0.2 h -1.2 z m 2.6,4.5 c -0.1,0.1 -0.2,0.2 -0.4,0.3 -0.2,0.1 -0.3,0.1 -0.5,0.1 -0.2,0 -0.4,0 -0.5,0 h -1.2 v -2.1 h 1.2 c 0.5,0 0.9,0.1 1.2,0.2 0.2,0.1 0.4,0.4 0.4,0.8 0,0.4 -0.1,0.6 -0.2,0.7 z"
         id="path150" />
      <polygon
         style="fill:#be1e2d"
         points="280.8,101.7 278.1,105.8 278.1,108.9 276.8,108.9 276.8,105.8 274.1,101.7 275.7,101.7 277.5,104.6 279.3,101.7 "
         id="polygon152" />
    </g>
    <path
       style="fill:#be1e2d"
       d="M 37,1.5 35.5,0 34,1.5 22.5,12.5 v 20.8 l 11.8,10.8 1.5,1.4 1.5,-1.4 11.2,-10.9 V 12.4 Z M 46.3,32.2 35.8,42.4 24.7,32.2 V 13.4 L 35.5,3.1 46.3,13.4 Z"
       id="path156" />
    <path
       style="fill:#be1e2d"
       d="m 35.5,9 -6.7,6.4 v 14.7 l 6.9,6.3 6.5,-6.3 V 15.4 Z m 4.4,20.2 -4.4,4.2 -4.6,-4.2 V 16.4 l 4.5,-4.3 4.5,4.3 z"
       id="path158" />
  </g>
</svg>
